HIERARCHY
ROOT Hips
{
 OFFSET 0.000000 0.000000 0.000000
 CHANNELS 6 Xposition Yposition Zposition Yrotation Xrotation Zrotation
 JOINT Chest
 {
  OFFSET 0.000000 9.585900 0.002600
  CHANNELS 3 Yrotation Xrotation Zrotation
  JOINT Chest2
  {
   OFFSET 0.000000 9.601200 -0.005300
   CHANNELS 3 Yrotation Xrotation Zrotation
   JOINT Chest3
   {
    OFFSET 0.000000 9.561800 0.000000
    CHANNELS 3 Yrotation Xrotation Zrotation
    JOINT Chest4
    {
     OFFSET 0.000000 9.552100 0.000000
     CHANNELS 3 Yrotation Xrotation Zrotation
     JOINT Neck
     {
      OFFSET 0.000000 14.453000 0.000000
      CHANNELS 3 Yrotation Xrotation Zrotation
      JOINT Head
      {
       OFFSET 0.000000 8.936500 -0.011300
       CHANNELS 3 Yrotation Xrotation Zrotation
       End Site
       {
        OFFSET 0.000000 17.073600 -0.006000
       }
      }
     }
     JOINT RightCollar
     {
      OFFSET -2.921100 9.558500 0.000000
      CHANNELS 3 Yrotation Xrotation Zrotation
      JOINT RightShoulder
      {
       OFFSET -13.519700 0.000000 0.000000
       CHANNELS 3 Yrotation Xrotation Zrotation
       JOINT RightElbow
       {
        OFFSET 0.000000 -29.696600 0.000000
        CHANNELS 3 Yrotation Xrotation Zrotation
        JOINT RightWrist
        {
         OFFSET 0.000000 -24.004700 0.000000
         CHANNELS 3 Yrotation Xrotation Zrotation
         End Site
         {
          OFFSET 0.000000 -17.728500 0.000000
         }
        }
       }
      }
     }
     JOINT LeftCollar
     {
      OFFSET 2.921100 9.558500 0.000000
      CHANNELS 3 Yrotation Xrotation Zrotation
      JOINT LeftShoulder
      {
       OFFSET 13.519700 0.000000 0.000000
       CHANNELS 3 Yrotation Xrotation Zrotation
       JOINT LeftElbow
       {
        OFFSET 0.000000 -29.696600 0.000000
        CHANNELS 3 Yrotation Xrotation Zrotation
        JOINT LeftWrist
        {
         OFFSET 0.000000 -24.004700 0.000000
         CHANNELS 3 Yrotation Xrotation Zrotation
         End Site
         {
          OFFSET 0.000000 -17.728500 0.000000
         }
        }
       }
      }
     }
    }
   }
  }
 }
 JOINT RightHip
 {
  OFFSET -7.771700 -0.012900 -0.001300
  CHANNELS 3 Yrotation Xrotation Zrotation
  JOINT RightKnee
  {
   OFFSET 0.000000 -40.869800 0.001200
   CHANNELS 3 Yrotation Xrotation Zrotation
   JOINT RightAnkle
   {
    OFFSET 0.000000 -39.717900 0.002100
    CHANNELS 3 Yrotation Xrotation Zrotation
    JOINT RightToe
    {
     OFFSET 0.000000 -4.965400 11.033500
     CHANNELS 3 Yrotation Xrotation Zrotation
     End Site
     {
      OFFSET 0.000000 -1.423100 5.872300
     }
    }
   }
  }
 }
 JOINT LeftHip
 {
  OFFSET 7.771700 -0.012900 -0.001300
  CHANNELS 3 Yrotation Xrotation Zrotation
  JOINT LeftKnee
  {
   OFFSET 0.000000 -40.869800 0.001200
   CHANNELS 3 Yrotation Xrotation Zrotation
   JOINT LeftAnkle
   {
    OFFSET 0.000000 -39.717900 0.002100
    CHANNELS 3 Yrotation Xrotation Zrotation
    JOINT LeftToe
    {
     OFFSET 0.000000 -4.965400 11.033500
     CHANNELS 3 Yrotation Xrotation Zrotation
     End Site
     {
      OFFSET 0.000000 -1.423100 5.872300
     }
    }
   }
  }
 }
}
MOTION
Frames: 8
Frame Time: 0.008333
-8.425585 56.160919 18.110490 -176.232028 -31.685403 -10.222362 -1.421752 13.695184 6.873442 -0.985782 7.821756 2.299988 -1.185219 9.782739 2.860455 -0.975171 7.797143 2.304623 1.157042 16.951699 -2.777899 1.867060 -7.889399 -3.197385 3.902241 -1.030290 -2.156252 -3.616349 -11.414071 1.205033 75.336715 -42.031700 -55.508889 9.947222 10.195425 -16.561998 -10.252426 -0.359636 -5.109437 -3.096410 -10.046195 1.127265 -72.037562 -35.533160 61.916898 -0.495786 2.706859 1.001355 -18.985724 -27.760554 5.829686 56.895321 87.105918 55.189768 3.087124 -26.467322 -3.464731 -1.052385 2.782786 -0.477354 -11.182678 -43.327899 11.291866 178.197593 74.462232 175.931188 -1.730376 -25.199983 1.346237 -0.108767 -0.687238 -0.052732
-8.424305 56.159066 18.108685 -176.231455 -31.715211 -10.224803 -1.419066 13.724418 6.872822 -0.988893 7.827830 2.297858 -1.189196 9.795517 2.857329 -0.972329 7.803972 2.305522 1.112485 16.988666 -2.795215 1.828906 -7.851679 -3.204506 3.916672 -1.035935 -2.159465 -3.627057 -11.420669 1.193947 75.349974 -42.054407 -55.519620 9.943814 10.193324 -16.564559 -10.253758 -0.350337 -5.115172 -3.107175 -10.056373 1.129431 -72.026276 -35.518070 61.991135 -0.502553 2.696280 0.945084 -18.984434 -27.733718 5.824010 56.964962 87.111527 55.260350 3.086146 -26.465632 -3.469464 -1.046692 2.778844 -0.476409 -11.171746 -43.299751 11.271734 178.172365 74.456561 175.916814 -1.720533 -25.205922 1.337622 -0.109566 -0.688040 -0.054444
-8.424701 56.155071 18.109391 -176.230326 -31.725747 -10.219674 -1.423261 13.734882 6.863947 -0.987438 7.830149 2.298294 -1.197434 9.812388 2.851516 -0.985332 7.833249 2.297626 1.087638 17.002882 -2.806935 1.792464 -7.815363 -3.212282 3.944880 -1.064238 -2.157023 -3.631338 -11.423188 1.180526 75.368447 -42.084349 -55.543679 9.941971 10.195874 -16.558319 -10.242244 -0.358369 -5.111263 -3.098918 -10.081860 1.141841 -72.034951 -35.501940 62.066082 -0.525517 2.700932 0.846596 -18.993817 -27.731491 5.826737 57.085482 87.121274 55.368685 3.078768 -26.463109 -3.469597 -1.039314 2.773035 -0.472615 -11.158780 -43.296257 11.243245 178.129292 74.450860 175.884982 -1.712615 -25.208311 1.332380 -0.111086 -0.690245 -0.054751
-8.423924 56.151147 18.109795 -176.226371 -31.737589 -10.226355 -1.429500 13.745323 6.865677 -0.988798 7.840117 2.295577 -1.198972 9.823509 2.847329 -0.987775 7.842242 2.294911 1.077138 17.007297 -2.811065 1.737629 -7.737178 -3.224451 3.964686 -1.056387 -2.157822 -3.645432 -11.442247 1.173262 75.401043 -42.119573 -55.580871 9.943512 10.202874 -16.549083 -10.248339 -0.342421 -5.114683 -3.085057 -10.119158 1.158158 -72.042290 -35.477934 62.127367 -0.549170 2.705306 0.759409 -18.999828 -27.719618 5.830461 57.193095 87.120181 55.475211 3.076963 -26.471606 -3.473518 -1.040334 2.781143 -0.473032 -11.153028 -43.288744 11.227347 178.081935 74.443739 175.850908 -1.705328 -25.219340 1.331233 -0.112261 -0.684890 -0.060591
-8.424081 56.147673 18.108793 -176.218358 -31.758449 -10.233061 -1.433783 13.764638 6.864200 -0.994176 7.856974 2.289750 -1.195543 9.822862 2.849854 -0.993988 7.855083 2.290531 1.066899 17.012837 -2.814536 1.693537 -7.627141 -3.237843 3.977028 -1.014348 -2.164144 -3.653104 -11.480484 1.160971 75.426692 -42.157150 -55.612727 9.941208 10.201485 -16.554814 -10.256776 -0.322451 -5.116882 -3.074756 -10.146096 1.170551 -72.047481 -35.455602 62.193200 -0.650261 2.711976 0.655503 -19.002059 -27.699583 5.825241 57.306150 87.119433 55.591253 3.075442 -26.477530 -3.476048 -1.039104 2.785180 -0.473687 -11.147156 -43.271800 11.208302 178.046937 74.436110 175.825708 -1.696666 -25.227382 1.327074 -0.112666 -0.684036 -0.061292
-8.423707 56.143763 18.108330 -176.206260 -31.775230 -10.247814 -1.436467 13.782175 6.871716 -0.996411 7.861213 2.288837 -1.196595 9.823673 2.850152 -0.994952 7.857099 2.289598 1.024921 17.084302 -2.836621 1.678873 -7.516354 -3.241892 3.979225 -1.010788 -2.164453 -3.653318 -11.481352 1.152173 75.453303 -42.173778 -55.633765 9.930290 10.209381 -16.571805 -10.264475 -0.305911 -5.120111 -3.087445 -10.146240 1.161841 -72.040778 -35.434781 62.241456 -0.743080 2.712064 0.599984 -19.013059 -27.679252 5.830992 57.473632 87.109670 55.754259 3.069624 -26.485105 -3.469343 -1.045571 2.794987 -0.479011 -11.157779 -43.258447 11.205428 178.039312 74.426631 175.822496 -1.688390 -25.234608 1.323267 -0.111075 -0.683988 -0.059729
-8.426003 56.138519 18.109255 -176.205776 -31.784262 -10.242618 -1.435478 13.790453 6.865339 -0.997064 7.865211 2.286881 -1.197840 9.836240 2.843097 -0.995682 7.864392 2.286366 0.979619 17.264060 -2.857993 1.677598 -7.484118 -3.236516 3.986692 -0.997086 -2.164314 -3.659654 -11.512607 1.154565 75.463484 -42.208289 -55.650014 9.946616 10.224497 -16.563406 -10.267165 -0.303618 -5.109562 -3.085696 -10.166374 1.167225 -72.085662 -35.395009 62.307236 -0.775475 2.730284 0.544077 -19.001787 -27.684252 5.825797 57.718399 87.116271 56.001989 3.056858 -26.475794 -3.464574 -1.038854 2.784434 -0.476139 -11.141993 -43.258576 11.174229 178.013250 74.419323 175.807521 -1.673851 -25.238178 1.316425 -0.111579 -0.683693 -0.060210
-8.428143 56.133989 18.109464 -176.201418 -31.799560 -10.243623 -1.435478 13.805144 6.863398 -0.995310 7.872693 2.283050 -1.193471 9.860330 2.831259 -0.997510 7.858926 2.291700 0.953969 17.412012 -2.863390 1.659126 -7.388035 -3.233087 3.979546 -0.953055 -2.170242 -3.660170 -11.580131 1.166414 75.464675 -42.237675 -55.656331 9.952525 10.229598 -16.559747 -10.282751 -0.280016 -5.105859 -3.094275 -10.205573 1.180543 -72.065084 -35.344241 62.376576 -0.824139 2.702001 0.468401 -18.993518 -27.676090 5.821170 57.889023 87.117805 56.172835 3.052360 -26.476820 -3.458290 -1.040016 2.785694 -0.477143 -11.134946 -43.248759 11.148364 177.981376 74.411802 175.784965 -1.659308 -25.246656 1.307359 -0.112679 -0.679993 -0.060430
